<svg width="24" height="24" viewBox="0 0 24 24" fill="none" xmlns="http://www.w3.org/2000/svg">
<rect width="24" height="24" rx="12" fill="#888888"/>
<path fill-rule="evenodd" clip-rule="evenodd" d="M16.7326 8.98258C16.786 8.9292 16.8284 8.86582 16.8574 8.79604C16.8863 8.72627 16.9013 8.65148 16.9013 8.57594C16.9014 8.5004 16.8865 8.42559 16.8577 8.35578C16.8288 8.28597 16.7865 8.22253 16.7331 8.16908C16.6797 8.11564 16.6163 8.07323 16.5465 8.04428C16.4768 8.01532 16.402 8.0004 16.3264 8.00035C16.2509 8.00031 16.1761 8.01514 16.1063 8.04401C16.0365 8.07287 15.973 8.1152 15.9196 8.16858L12.4506 11.6376L8.98258 8.16858C8.87464 8.06064 8.72824 8 8.57558 8C8.42293 8 8.27653 8.06064 8.16858 8.16858C8.06064 8.27653 8 8.42293 8 8.57558C8 8.72824 8.06064 8.87464 8.16858 8.98258L11.6376 12.4506L8.16858 15.9186C8.11514 15.972 8.07274 16.0355 8.04381 16.1053C8.01489 16.1752 8 16.25 8 16.3256C8 16.4012 8.01489 16.476 8.04381 16.5459C8.07274 16.6157 8.11514 16.6791 8.16858 16.7326C8.27653 16.8405 8.42293 16.9012 8.57558 16.9012C8.65117 16.9012 8.72602 16.8863 8.79585 16.8574C8.86568 16.8284 8.92914 16.786 8.98258 16.7326L12.4506 13.2636L15.9196 16.7326C16.0275 16.8404 16.1739 16.9009 16.3264 16.9008C16.479 16.9007 16.6253 16.84 16.7331 16.7321C16.8409 16.6241 16.9014 16.4778 16.9013 16.3252C16.9012 16.1727 16.8405 16.0264 16.7326 15.9186L13.2636 12.4506L16.7326 8.98258Z" fill="white"/>
</svg>
